# xmcd
#
# Track frame offsets:
#	150
#	12915
#	29227
#	42420
#	61362
#	78692
#	91650
#	104397
#	118720
#	133677
#
# Disc length: 1965 seconds
#
# Revision: 1
# Processed by: cddbd v1.5.1PL0 Copyright (c) Steve Scherf et al.
# Submitted via: audiograbber 1.83.01
#
DISCID=8607ab0a
DTITLE=Exile and O'Kanes - Back to Back
DYEAR=1997
DGENRE=Country
TTITLE0=Give Me One More Chance
TTITLE1=She's A Miracle
TTITLE2=It'll Be Me
TTITLE3=I Can't Get Close Enough
TTITLE4=Just One Kiss
TTITLE5=Oh Darling
TTITLE6=Can't Stop My Heart From Loving You
TTITLE7=Daddies Need To Grow Up Too
TTITLE8=One True Love
TTITLE9=Blue Love
EXTD=
EXTT0=
EXTT1=
EXTT2=
EXTT3=
EXTT4=
EXTT5=
EXTT6=
EXTT7=
EXTT8=
EXTT9=
PLAYORDER=
